<?xml version="1.0" standalone="no"?>
<!DOCTYPE svg PUBLIC "-//W3C//DTD SVG 20010904//EN"
 "http://www.w3.org/TR/2001/REC-SVG-20010904/DTD/svg10.dtd">
<svg version="1.0" xmlns="http://www.w3.org/2000/svg"
 width="1000.000000pt" height="1000.000000pt" viewBox="0 0 1000.000000 1000.000000"
 preserveAspectRatio="xMidYMid meet">
<metadata>
Created by potrace 1.14, written by Peter Selinger 2001-2017
</metadata>
<g transform="translate(0.000000,1000.000000) scale(0.100000,-0.100000)"
fill="#000000" stroke="none">
<path d="M0 5000 l0 -5000 5000 0 5000 0 0 5000 0 5000 -5000 0 -5000 0 0
-5000z m6210 4635 c470 -52 969 -174 1395 -342 497 -196 913 -467 1248 -811
53 -56 97 -105 97 -109 0 -4 -322 -330 -715 -723 l-716 -715 -20 25 c-93 114
-167 193 -239 257 -303 266 -725 440 -1220 505 -139 18 -488 15 -640 -6 -289
-39 -511 -106 -765 -230 -261 -129 -456 -267 -646 -458 -396 -397 -649 -930
-735 -1542 -21 -152 -29 -538 -15 -706 99 -1182 785 -2060 1816 -2326 224 -57
387 -77 650 -77 243 -1 355 9 552 49 475 94 941 376 1242 750 35 43 67 79 71
79 4 0 336 -310 739 -689 639 -601 730 -690 719 -705 -73 -96 -342 -351 -510
-486 -607 -485 -1318 -787 -2103 -894 -253 -35 -349 -42 -661 -48 -642 -12
-1189 63 -1729 237 -1062 343 -1910 1012 -2460 1940 -157 265 -322 634 -419
938 -296 927 -298 2080 -5 3017 88 280 237 620 388 882 738 1285 2086 2079
3736 2202 184 14 774 5 945 -14z"/>
</g>
</svg>
